# xmcd
# 
# Track frame offsets:
#     150
#     14036
#     26870
#     40194
#     52940
#     67121
#     80041
#     93554
#     107550
#     121597
#     136299
#     149315
#     162581
#     175027
#     189248
#     203988
#     217734
#     229713
#     243922
#     255518
#     269030
#     279865
#     293776
#     305975
#     317637
# 
# Disc length: 4370
# 
# Revision: 12
# Processed by: cddbd v1.5.2PL0 Copyright (c) Steve Scherf et al.
# Submitted via: fre:ac v1.0.31
# 
DISCID=6e111019
DTITLE=Blues - When The Sun Goes Down - Volume 4 - That's All Right
DYEAR=2002
DGENRE=Blues
TTITLE0=Doctor Clayton - Pearl Harbor Blues (mono)
TTITLE1=The Five Breezes - My Buddy Blues (mono)
TTITLE2=Big Maceo - Worried Life Blues (mono)
TTITLE3=The Cats and A Fiddle - I'd Rather Drink Muddy Water (mono)
TTITLE4=Memphis Slim - Grinder Man Blues (mono)
TTITLE5=Pete Johnson and Albert Ammons - Walkin' The Boogie (mono)
TTITLE6=Lil Green - Why Don't You Do Right (mono)
TTITLE7=Robert Lockwood - Little Boy Blue (mono)
TTITLE8=Doctor Clayton - Angels In Harlem (mono)
TTITLE9=Sunnyland Slim - Illinois Blues (mono)
TTITLE10=Eddie Boyd - Chicago Is Just That Way (mono)
TTITLE11=Arthur 'Big Boy' Crudup - That's All Right (mono)
TTITLE12=Henry 'Red' Allen - Get The Mop (mono)
TTITLE13=Jazz Gillum - Look On Yonder Wall (mono)
TTITLE14=Roosevelt Sykes Trio - Anytime Is The Right Time (mono)
TTITLE15=Tampa Red - When Things Go Wrong With You (mono)
TTITLE16=Arthur 'Big Boy' Crudup - Dust My Broom (mono)
TTITLE17=Washboard Sam - Soap And Water Blues (mono)
TTITLE18=Piano Red - Rockin' With Red (mono)
TTITLE19=Tampa Red - Sweet Little Angel (mono)
TTITLE20=Arthur 'Big Boy' Crudup - My Baby Left Me (mono)
TTITLE21=Johnny Moore's Three Blazers - How Blue Can You Get (mono)
TTITLE22=Piano Red - Right String, But The Wrong Yo-Yo (mono)
TTITLE23=Sonny Terry - Ride And Roll (mono)
TTITLE24=Little Richard - Get Rich Quick (mono)
EXTD=
EXTT0=
EXTT1=
EXTT2=
EXTT3=
EXTT4=
EXTT5=
EXTT6=
EXTT7=
EXTT8=
EXTT9=
EXTT10=
EXTT11=
EXTT12=
EXTT13=
EXTT14=
EXTT15=
EXTT16=
EXTT17=
EXTT18=
EXTT19=
EXTT20=
EXTT21=
EXTT22=
EXTT23=
EXTT24=
PLAYORDER=
